<svg width="1920" height="564" viewBox="0 0 1920 564" fill="none" xmlns="http://www.w3.org/2000/svg">
<path d="M1920 0H0V564H1920V0Z" fill="#070E30"/>
<path d="M83 564L883 0H1823.5L1023.5 564H83Z" fill="url(#paint0_linear_411_203)"/>
<path d="M664.6 564L1464.6 0H1881.6L1081.6 564H664.6Z" fill="url(#paint1_linear_411_203)"/>
<path d="M1802 564L1002 0H555L1355 564H1802Z" fill="url(#paint2_linear_411_203)"/>
<path d="M1271.4 564L471.4 0H-418.1L381.9 564H1271.4Z" fill="url(#paint3_linear_411_203)"/>
<path d="M1491.93 564L1920 262.212V564H1491.93Z" fill="url(#paint4_linear_411_203)"/>
<path d="M0 564H428.069L0 262.212V564Z" fill="url(#paint5_linear_411_203)"/>
<defs>
<linearGradient id="paint0_linear_411_203" x1="83" y1="56400" x2="33161.8" y2="-45681" gradientUnits="userSpaceOnUse">
<stop stop-color="#0F46B9" stop-opacity="0.2"/>
<stop offset="0.66" stop-color="#0F46B9" stop-opacity="0"/>
</linearGradient>
<linearGradient id="paint1_linear_411_203" x1="664.6" y1="56400" x2="43697.7" y2="-36457" gradientUnits="userSpaceOnUse">
<stop stop-color="#0F46B9" stop-opacity="0.2"/>
<stop offset="0.66" stop-color="#0F46B9" stop-opacity="0"/>
</linearGradient>
<linearGradient id="paint2_linear_411_203" x1="125255" y1="56400" x2="82901.2" y2="-37244" gradientUnits="userSpaceOnUse">
<stop stop-color="#0F46B9" stop-opacity="0.2"/>
<stop offset="0.66" stop-color="#0F46B9" stop-opacity="0"/>
</linearGradient>
<linearGradient id="paint3_linear_411_203" x1="168532" y1="56400" x2="134652" y2="-45089.9" gradientUnits="userSpaceOnUse">
<stop stop-color="#0F46B9" stop-opacity="0.2"/>
<stop offset="0.66" stop-color="#0F46B9" stop-opacity="0"/>
</linearGradient>
<linearGradient id="paint4_linear_411_203" x1="1491.93" y1="30441" x2="29916.4" y2="-9877.36" gradientUnits="userSpaceOnUse">
<stop stop-color="#0F46B9" stop-opacity="0.2"/>
<stop offset="0.66" stop-color="#0F46B9" stop-opacity="0"/>
</linearGradient>
<linearGradient id="paint5_linear_411_203" x1="42806.9" y1="30441" x2="14382.4" y2="-9877.36" gradientUnits="userSpaceOnUse">
<stop stop-color="#0F46B9" stop-opacity="0.2"/>
<stop offset="0.66" stop-color="#0F46B9" stop-opacity="0"/>
</linearGradient>
</defs>
</svg>
