<svg width="32" height="32" viewBox="0 0 32 32" fill="none" xmlns="http://www.w3.org/2000/svg">
<path d="M16.0001 29.3333C23.3639 29.3333 29.3334 23.3638 29.3334 16C29.3334 8.63619 23.3639 2.66666 16.0001 2.66666C8.63628 2.66666 2.66675 8.63619 2.66675 16C2.66675 23.3638 8.63628 29.3333 16.0001 29.3333Z" stroke="white" stroke-width="2" stroke-linecap="round" stroke-linejoin="round"/>
<path d="M13.3334 10.6667V16H18.0001C18.7073 16 19.3856 15.719 19.8857 15.219C20.3858 14.7189 20.6667 14.0406 20.6667 13.3333C20.6667 12.6261 20.3858 11.9478 19.8857 11.4477C19.3856 10.9476 18.7073 10.6667 18.0001 10.6667H16.6667M13.3334 10.6667H10.6667M13.3334 10.6667V8M13.3334 10.6667H16.6667M16.6667 10.6667V8" stroke="white" stroke-width="2" stroke-linecap="round" stroke-linejoin="round"/>
<path d="M13.3334 21.3333V16H19.3334C20.0407 16 20.7189 16.281 21.219 16.781C21.7191 17.2811 22.0001 17.9594 22.0001 18.6667C22.0001 19.3739 21.7191 20.0522 21.219 20.5523C20.7189 21.0524 20.0407 21.3333 19.3334 21.3333H16.6667M13.3334 21.3333V24M13.3334 21.3333H10.6667H16.6667M13.3334 21.3333H16.6667M16.6667 21.3333V24" stroke="white" stroke-width="2" stroke-linecap="round" stroke-linejoin="round"/>
</svg>
