<svg width="22" height="25" viewBox="0 0 22 25" fill="none" xmlns="http://www.w3.org/2000/svg">
<path d="M0.0958305 2.01807C0.0395254 2.21869 0 2.43394 0 2.68069V22.9952C0 23.2386 0.0380339 23.4527 0.0932203 23.6507L11.4206 12.8488L0.0958305 2.01807Z" fill="#48A0DC"/>
<path d="M2.61618 1.22899C2.08893 0.905362 1.56913 0.824362 1.13025 0.936112L12.505 11.8149L15.8415 8.63374L2.61618 1.22899Z" fill="#88C057"/>
<path d="M20.7173 11.3638L17.1869 9.38721L13.5714 12.835L17.2547 16.3585L20.6901 14.4598C22.3654 13.4987 21.7535 11.95 20.7173 11.3638Z" fill="#FFCC66"/>
<path d="M12.4867 13.8682L1.09778 24.7274C1.54337 24.853 2.0751 24.7784 2.61578 24.4465L15.8825 17.1157L12.4867 13.8682Z" fill="#ED7161"/>
</svg>
