<svg width="1840" height="800" viewBox="0 0 1840 800" fill="none" xmlns="http://www.w3.org/2000/svg">
<path d="M0 0H1840V800H500C223.858 800 0 576.142 0 300V0Z" fill="#0F2AA5"/>
<g clip-path="url(#clip0_345_9)">
<mask id="mask0_345_9" style="mask-type:luminance" maskUnits="userSpaceOnUse" x="3" y="0" width="1837" height="800">
<path d="M1840 0H3V800H1840V0Z" fill="white"/>
</mask>
<g mask="url(#mask0_345_9)">
<path d="M1840 0H3V800H1840V0Z" fill="#070E30"/>
<path d="M82.4121 800L847.829 0H1747.67L982.255 800H82.4121Z" fill="url(#paint0_linear_345_9)"/>
<path d="M638.87 800L1404.29 0H1803.26L1037.84 800H638.87Z" fill="url(#paint1_linear_345_9)"/>
<path d="M1727.1 800L961.684 0H534.008L1299.42 800H1727.1Z" fill="url(#paint2_linear_345_9)"/>
<path d="M1219.44 800L454.022 0H-397.026L368.391 800H1219.44Z" fill="url(#paint3_linear_345_9)"/>
<path d="M1430.44 800L1840 371.931V800H1430.44Z" fill="url(#paint4_linear_345_9)"/>
<path d="M3 800H412.564L3 371.931V800Z" fill="url(#paint5_linear_345_9)"/>
</g>
</g>
<defs>
<linearGradient id="paint0_linear_345_9" x1="82.4121" y1="80000" x2="62534.1" y2="-49997.9" gradientUnits="userSpaceOnUse">
<stop stop-color="#0F46B9" stop-opacity="0.2"/>
<stop offset="0.66" stop-color="#0F46B9" stop-opacity="0"/>
</linearGradient>
<linearGradient id="paint1_linear_345_9" x1="638.87" y1="80000" x2="75316.5" y2="-28692.4" gradientUnits="userSpaceOnUse">
<stop stop-color="#0F46B9" stop-opacity="0.2"/>
<stop offset="0.66" stop-color="#0F46B9" stop-opacity="0"/>
</linearGradient>
<linearGradient id="paint2_linear_345_9" x1="119843" y1="80000" x2="45834.1" y2="-30374.9" gradientUnits="userSpaceOnUse">
<stop stop-color="#0F46B9" stop-opacity="0.2"/>
<stop offset="0.66" stop-color="#0F46B9" stop-opacity="0"/>
</linearGradient>
<linearGradient id="paint3_linear_345_9" x1="161249" y1="80000" x2="97643.5" y2="-48520.9" gradientUnits="userSpaceOnUse">
<stop stop-color="#0F46B9" stop-opacity="0.2"/>
<stop offset="0.66" stop-color="#0F46B9" stop-opacity="0"/>
</linearGradient>
<linearGradient id="paint4_linear_345_9" x1="1430.44" y1="43178.8" x2="44195.5" y2="2262.4" gradientUnits="userSpaceOnUse">
<stop stop-color="#0F46B9" stop-opacity="0.2"/>
<stop offset="0.66" stop-color="#0F46B9" stop-opacity="0"/>
</linearGradient>
<linearGradient id="paint5_linear_345_9" x1="40959.4" y1="43178.8" x2="-1805.74" y2="2262.39" gradientUnits="userSpaceOnUse">
<stop stop-color="#0F46B9" stop-opacity="0.2"/>
<stop offset="0.66" stop-color="#0F46B9" stop-opacity="0"/>
</linearGradient>
<clipPath id="clip0_345_9">
<path d="M3 0H1840V800H503C226.858 800 3 576.142 3 300V0Z" fill="white"/>
</clipPath>
</defs>
</svg>
