<svg width="60" height="60" viewBox="0 0 60 60" fill="none" xmlns="http://www.w3.org/2000/svg">
<path fill-rule="evenodd" clip-rule="evenodd" d="M29.7208 59.2191C22.2606 58.3729 15.3864 55.5008 9.99435 50.3065C4.50417 45.0176 0.66559 38.2773 0.11336 30.6973C-0.482327 22.5209 1.19563 13.9332 6.91407 8.02627C12.7182 2.03074 21.3571 0.449807 29.7208 0.11374C38.5343 -0.240404 48.268 -0.139054 54.449 6.11623C60.6 12.341 59.9275 21.9719 59.9416 30.6974C59.9559 39.4438 60.9101 49.3358 54.5291 55.3581C48.2188 61.3136 38.3661 60.1997 29.7208 59.2191Z" fill="#FFBF74"/>
<path d="M43.5 21.924V38.0775C43.5 38.7675 43.269 39.344 42.807 39.807C42.345 40.27 41.7685 40.501 41.0775 40.5H18.9225C18.2325 40.5 17.6565 40.269 17.1945 39.807C16.7325 39.345 16.501 38.768 16.5 38.076V21.924C16.5 21.233 16.7315 20.6565 17.1945 20.1945C17.6575 19.7325 18.2335 19.501 18.9225 19.5H41.0775C41.7675 19.5 42.3435 19.7315 42.8055 20.1945C43.2675 20.6575 43.499 21.234 43.5 21.924ZM18 25.212H42V21.924C42 21.693 41.904 21.481 41.712 21.288C41.52 21.095 41.3085 20.999 41.0775 21H18.9225C18.6925 21 18.481 21.096 18.288 21.288C18.095 21.48 17.999 21.692 18 21.924V25.212ZM18 28.788V38.0775C18 38.3075 18.096 38.519 18.288 38.712C18.48 38.905 18.6915 39.001 18.9225 39H41.0775C41.3075 39 41.519 38.904 41.712 38.712C41.905 38.52 42.001 38.3085 42 38.0775V28.788H18Z" fill="black"/>
</svg>
