<svg width="60" height="60" viewBox="0 0 60 60" fill="none" xmlns="http://www.w3.org/2000/svg">
<path fill-rule="evenodd" clip-rule="evenodd" d="M29.7208 59.2191C22.2606 58.3729 15.3864 55.5008 9.99435 50.3065C4.50417 45.0176 0.66559 38.2773 0.11336 30.6973C-0.482327 22.5209 1.19563 13.9332 6.91407 8.02627C12.7182 2.03074 21.3571 0.449807 29.7208 0.11374C38.5343 -0.240404 48.268 -0.139054 54.449 6.11623C60.6 12.341 59.9275 21.9719 59.9416 30.6974C59.9559 39.4438 60.9101 49.3358 54.5291 55.3581C48.2188 61.3136 38.3661 60.1997 29.7208 59.2191Z" fill="#FFBF74"/>
<path d="M42.818 29.6527L30.443 13.9027C30.3904 13.8354 30.3232 13.781 30.2464 13.7437C30.1697 13.7063 30.0854 13.6868 30 13.6868C29.9147 13.6868 29.8304 13.7063 29.7537 13.7437C29.6769 13.781 29.6097 13.8354 29.5571 13.9027L17.1821 29.6527C17.1043 29.7517 17.062 29.874 17.062 30C17.062 30.126 17.1043 30.2483 17.1821 30.3473L29.5571 46.0973C29.6097 46.1646 29.6769 46.2189 29.7537 46.2563C29.8304 46.2937 29.9147 46.3132 30 46.3132C30.0854 46.3132 30.1697 46.2937 30.2464 46.2563C30.3232 46.2189 30.3904 46.1646 30.443 46.0973L42.818 30.3473C42.8958 30.2483 42.9381 30.126 42.9381 30C42.9381 29.874 42.8958 29.7517 42.818 29.6527ZM30.5625 15.877L41.4905 29.7848L30.5625 34.7517V15.877ZM29.4375 34.7517L18.5096 29.7848L29.4375 15.877V34.7517ZM29.4375 35.9878V44.123L19.4925 31.4667L29.4375 35.9878ZM30.5625 35.9878L40.5075 31.4667L30.5625 44.123V35.9878Z" fill="black"/>
</svg>
