<svg width="60" height="60" viewBox="0 0 60 60" fill="none" xmlns="http://www.w3.org/2000/svg">
<path fill-rule="evenodd" clip-rule="evenodd" d="M29.7208 59.2191C22.2606 58.3729 15.3864 55.5008 9.99435 50.3065C4.50417 45.0176 0.66559 38.2773 0.11336 30.6973C-0.482327 22.5209 1.19563 13.9332 6.91407 8.02627C12.7182 2.03074 21.3571 0.449807 29.7208 0.11374C38.5343 -0.240404 48.268 -0.139054 54.449 6.11623C60.6 12.341 59.9275 21.9719 59.9416 30.6974C59.9559 39.4438 60.9101 49.3358 54.5291 55.3581C48.2188 61.3136 38.3661 60.1997 29.7208 59.2191Z" fill="#FFBF74"/>
<path d="M29.997 15C25.485 15 22.56 18.0285 19.101 19.1325C17.694 19.5825 16.9905 19.806 16.7055 20.1225C16.4205 20.4375 16.338 20.901 16.1715 21.825C14.3865 31.719 18.2865 40.866 27.5865 44.427C28.584 44.8095 29.0835 45 30.0015 45C30.9195 45 31.4205 44.808 32.4195 44.4255C41.718 40.866 45.6135 31.719 43.8285 21.825C43.662 20.901 43.578 20.4375 43.293 20.121C43.008 19.8045 42.306 19.581 40.899 19.1325C37.4385 18.0285 34.509 15 29.997 15Z" stroke="#070E30" stroke-width="1.5" stroke-linecap="round" stroke-linejoin="round"/>
<path d="M27.375 26.9385C27.375 26.8485 27.387 26.3295 27.39 25.6785C27.39 25.0815 27.339 24.5085 27.624 23.9835C28.689 21.8625 31.749 22.0785 32.505 24.2385C32.6355 24.594 32.6445 25.1565 32.64 25.6785C32.6355 26.343 32.649 26.9385 32.649 26.9385M27.5055 27.57C25.8855 27.57 25.0755 28.74 24.8955 29.46C24.7155 30.18 24.7155 32.79 24.8235 33.87C25.1835 35.22 26.0835 35.778 26.9655 35.958C27.7755 36.03 31.1955 36.003 32.1855 36.003C33.6255 36.03 34.7055 35.49 35.1555 33.87C35.2455 33.33 35.3355 30.36 35.1105 29.46C34.6335 28.02 33.4455 27.57 32.5455 27.57H27.5055Z" stroke="#070E30" stroke-width="1.5" stroke-linecap="round" stroke-linejoin="round"/>
</svg>
