<svg width="32" height="32" viewBox="0 0 32 32" fill="none" xmlns="http://www.w3.org/2000/svg">
<path d="M14.6667 16C14.6667 16.5253 14.7702 17.0454 14.9712 17.5307C15.1722 18.016 15.4669 18.457 15.8383 18.8284C16.2098 19.1999 16.6507 19.4945 17.136 19.6955C17.6213 19.8965 18.1415 20 18.6667 20C19.192 20 19.7122 19.8965 20.1975 19.6955C20.6828 19.4945 21.1237 19.1999 21.4952 18.8284C21.8666 18.457 22.1612 18.016 22.3623 17.5307C22.5633 17.0454 22.6667 16.5253 22.6667 16C22.6667 15.4747 22.5633 14.9546 22.3623 14.4693C22.1612 13.984 21.8666 13.543 21.4952 13.1716C21.1237 12.8001 20.6828 12.5055 20.1975 12.3045C19.7122 12.1035 19.192 12 18.6667 12C18.1415 12 17.6213 12.1035 17.136 12.3045C16.6507 12.5055 16.2098 12.8001 15.8383 13.1716C15.4669 13.543 15.1722 13.984 14.9712 14.4693C14.7702 14.9546 14.6667 15.4747 14.6667 16Z" stroke="white" stroke-width="2" stroke-linecap="round" stroke-linejoin="round"/>
<path d="M16 13.02C15.4246 12.5048 14.7124 12.1672 13.9493 12.048C13.1862 11.9287 12.4049 12.033 11.6998 12.3481C10.9946 12.6632 10.3958 13.1757 9.97559 13.8238C9.55539 14.4718 9.33179 15.2277 9.33179 16C9.33179 16.7724 9.55539 17.5282 9.97559 18.1762C10.3958 18.8243 10.9946 19.3368 11.6998 19.6519C12.4049 19.967 13.1862 20.0713 13.9493 19.9521C14.7124 19.8328 15.4246 19.4952 16 18.98" stroke="white" stroke-width="2" stroke-linecap="round" stroke-linejoin="round"/>
<path d="M4 9.33332C4 8.62608 4.28095 7.9478 4.78105 7.4477C5.28115 6.94761 5.95942 6.66666 6.66667 6.66666H25.3333C26.0406 6.66666 26.7189 6.94761 27.219 7.4477C27.719 7.9478 28 8.62608 28 9.33332V22.6667C28 23.3739 27.719 24.0522 27.219 24.5523C26.7189 25.0524 26.0406 25.3333 25.3333 25.3333H6.66667C5.95942 25.3333 5.28115 25.0524 4.78105 24.5523C4.28095 24.0522 4 23.3739 4 22.6667V9.33332Z" stroke="white" stroke-width="2" stroke-linecap="round" stroke-linejoin="round"/>
</svg>
