<svg width="32" height="32" viewBox="0 0 32 32" fill="none" xmlns="http://www.w3.org/2000/svg">
<path fill-rule="evenodd" clip-rule="evenodd" d="M10.9494 2.66666C9.99557 2.66667 9.07312 3.00756 8.34846 3.62782C7.6238 4.24808 7.14465 5.10689 6.99744 6.04932L4.25611 23.5867C4.1964 23.9672 4.21984 24.3561 4.3248 24.7267C4.42976 25.0973 4.61376 25.4407 4.86413 25.7334C5.1145 26.0261 5.4253 26.2611 5.77515 26.4222C6.12501 26.5833 6.50561 26.6667 6.89077 26.6667H9.1441C9.1441 27.3739 9.42506 28.0522 9.92515 28.5523C10.4253 29.0524 11.1035 29.3333 11.8108 29.3333H14.4454C15.0813 29.3333 15.6962 29.1061 16.1793 28.6927C16.6624 28.2793 16.9819 27.7069 17.0801 27.0787L17.7694 22.6667H19.7068C21.5267 22.6667 23.2922 22.0463 24.712 20.9077C26.1318 19.7691 27.1209 18.1805 27.5161 16.404L27.5801 16.1133C27.9014 14.6724 27.7353 13.1656 27.1079 11.8292C26.4805 10.4929 25.4273 9.40256 24.1134 8.72932C23.4374 5.34799 20.4588 2.66666 16.7201 2.66666H10.9468H10.9494ZM13.0614 18.6667H15.5188C17.4733 18.6661 19.3716 18.013 20.9127 16.8108C22.4538 15.6086 23.5493 13.9263 24.0254 12.0307L24.0388 11.9827C24.4686 12.456 24.7783 13.0259 24.9417 13.6441C25.105 14.2623 25.1173 14.9107 24.9774 15.5347L24.9121 15.824C24.6488 17.0083 23.9896 18.0675 23.0433 18.8267C22.0969 19.5859 20.92 19.9998 19.7068 20H17.7694C17.1336 20 16.5187 20.2272 16.0356 20.6406C15.5525 21.054 15.233 21.6264 15.1348 22.2547L14.4454 26.6667H11.8108L13.0614 18.6667Z" fill="white"/>
</svg>
