<svg width="1920" height="988" viewBox="0 0 1920 988" fill="none" xmlns="http://www.w3.org/2000/svg">
<rect width="1920" height="988" fill="#071136"/>
<g clip-path="url(#clip0_284_170)">
<mask id="mask0_284_170" style="mask-type:luminance" maskUnits="userSpaceOnUse" x="0" y="0" width="1920" height="988">
<path d="M1920 0H0V988H1920V0Z" fill="white"/>
<path d="M974 627C974 627.394 974.078 627.784 974.228 628.148C974.379 628.512 974.6 628.843 974.879 629.121C975.157 629.4 975.488 629.621 975.852 629.772C976.216 629.922 976.606 630 977 630C977.394 630 977.784 629.922 978.148 629.772C978.512 629.621 978.843 629.4 979.121 629.121C979.4 628.843 979.621 628.512 979.772 628.148C979.922 627.784 980 627.394 980 627C980 626.606 979.922 626.216 979.772 625.852C979.621 625.488 979.4 625.157 979.121 624.879C978.843 624.6 978.512 624.379 978.148 624.228C977.784 624.078 977.394 624 977 624C976.606 624 976.216 624.078 975.852 624.228C975.488 624.379 975.157 624.6 974.879 624.879C974.6 625.157 974.379 625.488 974.228 625.852C974.078 626.216 974 626.606 974 627Z" stroke="black" stroke-width="2" stroke-linecap="round" stroke-linejoin="round"/>
<path d="M975 624.765C974.568 624.379 974.034 624.125 973.462 624.036C972.89 623.947 972.304 624.025 971.775 624.261C971.246 624.497 970.797 624.882 970.482 625.368C970.166 625.854 969.999 626.421 969.999 627C969.999 627.579 970.166 628.146 970.482 628.632C970.797 629.118 971.246 629.503 971.775 629.739C972.304 629.975 972.89 630.053 973.462 629.964C974.034 629.875 974.568 629.621 975 629.235" stroke="black" stroke-width="2" stroke-linecap="round" stroke-linejoin="round"/>
<path d="M966 622C966 621.47 966.211 620.961 966.586 620.586C966.961 620.211 967.47 620 968 620H982C982.53 620 983.039 620.211 983.414 620.586C983.789 620.961 984 621.47 984 622V632C984 632.53 983.789 633.039 983.414 633.414C983.039 633.789 982.53 634 982 634H968C967.47 634 966.961 633.789 966.586 633.414C966.211 633.039 966 632.53 966 632V622Z" stroke="black" stroke-width="2" stroke-linecap="round" stroke-linejoin="round"/>
</mask>
<g mask="url(#mask0_284_170)">
<path d="M1920 0H0V988H1920V0Z" fill="#070E30"/>
<path d="M83 988L883 0H1823.5L1023.5 988H83Z" fill="url(#paint0_linear_284_170)"/>
<path d="M664.6 988L1464.6 0H1881.6L1081.6 988H664.6Z" fill="url(#paint1_linear_284_170)"/>
<path d="M1802 988L1002 0H555L1355 988H1802Z" fill="url(#paint2_linear_284_170)"/>
<path d="M1271.4 988L471.4 0H-418.1L381.9 988H1271.4Z" fill="url(#paint3_linear_284_170)"/>
<path d="M1491.93 988L1920 459.335V988H1491.93Z" fill="url(#paint4_linear_284_170)"/>
<path d="M0 988H428.069L0 459.335V988Z" fill="url(#paint5_linear_284_170)"/>
</g>
</g>
<defs>
<linearGradient id="paint0_linear_284_170" x1="83" y1="98800" x2="84915.6" y2="-50644.5" gradientUnits="userSpaceOnUse">
<stop stop-color="#0F46B9" stop-opacity="0.2"/>
<stop offset="0.66" stop-color="#0F46B9" stop-opacity="0"/>
</linearGradient>
<linearGradient id="paint1_linear_284_170" x1="664.6" y1="98800" x2="97356.1" y2="-20302.7" gradientUnits="userSpaceOnUse">
<stop stop-color="#0F46B9" stop-opacity="0.2"/>
<stop offset="0.66" stop-color="#0F46B9" stop-opacity="0"/>
</linearGradient>
<linearGradient id="paint2_linear_284_170" x1="125255" y1="98800" x2="29073.4" y2="-22595.2" gradientUnits="userSpaceOnUse">
<stop stop-color="#0F46B9" stop-opacity="0.2"/>
<stop offset="0.66" stop-color="#0F46B9" stop-opacity="0"/>
</linearGradient>
<linearGradient id="paint3_linear_284_170" x1="168532" y1="98800" x2="82424.5" y2="-48445.4" gradientUnits="userSpaceOnUse">
<stop stop-color="#0F46B9" stop-opacity="0.2"/>
<stop offset="0.66" stop-color="#0F46B9" stop-opacity="0"/>
</linearGradient>
<linearGradient id="paint4_linear_284_170" x1="1491.93" y1="53325.8" x2="53202.2" y2="11455.1" gradientUnits="userSpaceOnUse">
<stop stop-color="#0F46B9" stop-opacity="0.2"/>
<stop offset="0.66" stop-color="#0F46B9" stop-opacity="0"/>
</linearGradient>
<linearGradient id="paint5_linear_284_170" x1="42806.9" y1="53325.8" x2="-8903.46" y2="11455.1" gradientUnits="userSpaceOnUse">
<stop stop-color="#0F46B9" stop-opacity="0.2"/>
<stop offset="0.66" stop-color="#0F46B9" stop-opacity="0"/>
</linearGradient>
<clipPath id="clip0_284_170">
<rect width="1920" height="988" fill="white"/>
</clipPath>
</defs>
</svg>
